<?xml version="1.0" encoding="UTF-8" standalone="no" ?>
<!DOCTYPE svg PUBLIC "-//W3C//DTD SVG 1.1//EN" "http://www.w3.org/Graphics/SVG/1.1/DTD/svg11.dtd">
<svg xmlns="http://www.w3.org/2000/svg" xmlns:xlink="http://www.w3.org/1999/xlink" version="1.1" width="1080" height="1080" viewBox="0 0 1080 1080" xml:space="preserve">
<desc>Created with Fabric.js 5.2.4</desc>
<defs>
</defs>
<g transform="matrix(1 0 0 1 540 540)" id="2ba4eda4-82ea-4dfa-8f35-b5dc11a79248"  >
<rect style="stroke: none; stroke-width: 1; stroke-dasharray: none; stroke-linecap: butt; stroke-dashoffset: 0; stroke-linejoin: miter; stroke-miterlimit: 4; fill: rgb(255,255,255); fill-rule: nonzero; opacity: 1; visibility: hidden;" vector-effect="non-scaling-stroke"  x="-540" y="-540" rx="0" ry="0" width="1080" height="1080" />
</g>
<g transform="matrix(1 0 0 1 540 540)" id="fe481695-01cc-4a51-bf8f-b53360843753"  >
</g>
<g transform="matrix(3 0 0 3 540 540)"  >
<g style=""   >
		<g transform="matrix(1 0 0 1 103.8 19.54)" clip-path="url(#CLIPPATH_3)"  >
<clipPath id="CLIPPATH_3" >
	<rect transform="matrix(1 0 0 1 -103.8 -19.54)" id="clip0_11581_406869" x="-180" y="-100" rx="0" ry="0" width="360" height="200" />
</clipPath>
<path style="stroke: rgb(49,100,116); stroke-width: 1; stroke-dasharray: none; stroke-linecap: round; stroke-dashoffset: 0; stroke-linejoin: round; stroke-miterlimit: 4; fill: rgb(252,245,235); fill-rule: nonzero; opacity: 1;" vector-effect="non-scaling-stroke"  transform=" translate(-283.8, -119.54)" d="M 308.6 83.6026 C 309.6 82.1026 312.6 77.3026 309 71.6026 C 305.4 65.9026 298.7 63.5026 293.1 65.6026 C 288.5 67.3026 286.9 72.3026 287 76.1026 L 308.4 84.0026 L 308.6 83.8026 L 308.6 83.6026 Z M 292.7 76.5026 C 292.7 76.5026 292.7 72.0026 295.7 70.9026 C 298.9 69.6026 302.5 71.4026 304.3 74.2026 C 306.2 77.1026 304 79.7026 303.3 81.1026 L 292.7 76.5026 Z M 260.6 106.103 L 260.6 134.403 C 260.6 143.903 256.8 152.503 250.6 158.803 L 258.9 162.503 C 267.4 165.903 276 169.103 284.7 171.903 C 291.4 173.903 302.2 176.703 307.1 170.003 C 311.3 164.103 313.8 157.303 314.5 150.103 L 317 129.303 L 260.6 106.103 Z" stroke-linecap="round" />
</g>
		<g transform="matrix(1 0 0 1 111.12 5.62)" clip-path="url(#CLIPPATH_4)"  >
<clipPath id="CLIPPATH_4" >
	<rect transform="matrix(1 0 0 1 -111.12 -5.62)" id="clip0_11581_406869" x="-180" y="-100" rx="0" ry="0" width="360" height="200" />
</clipPath>
<path style="stroke: rgb(49,100,116); stroke-width: 1; stroke-dasharray: none; stroke-linecap: round; stroke-dashoffset: 0; stroke-linejoin: round; stroke-miterlimit: 4; fill: rgb(252,245,235); fill-rule: nonzero; opacity: 1;" vector-effect="non-scaling-stroke"  transform=" translate(-291.12, -105.62)" d="M 321.5 100.603 C 321.5 100.603 321.9 92.2033 313.5 85.8033 C 305.1 79.4033 298.8 77.4033 298.8 77.4033 C 295.8 76.2033 288 73.5033 282.7 73.4033 C 277.4 73.2033 272.2 75.4033 270.4 77.9033 C 267 82.7033 263.8 87.5033 260.6 92.4033 L 260.6 119.903 C 264.6 122.103 268.8 123.903 273.2 125.403 C 279 127.403 292.8 133.203 297.2 134.903 C 301.5 136.303 308.8 139.403 312.7 136.903 C 316.6 134.303 317.7 126.903 318.5 123.103 C 319.4 119.203 322.3 107.403 321.5 100.603 Z" stroke-linecap="round" />
</g>
		<g transform="matrix(1 0 0 1 103.06 30.64)" clip-path="url(#CLIPPATH_5)"  >
<clipPath id="CLIPPATH_5" >
	<rect transform="matrix(1 0 0 1 -103.06 -30.64)" id="clip0_11581_406869" x="-180" y="-100" rx="0" ry="0" width="360" height="200" />
</clipPath>
<path style="stroke: rgb(49,100,116); stroke-width: 1; stroke-dasharray: none; stroke-linecap: round; stroke-dashoffset: 0; stroke-linejoin: round; stroke-miterlimit: 4; fill: rgb(115,243,143); fill-rule: nonzero; opacity: 1;" vector-effect="non-scaling-stroke"  transform=" translate(-283.06, -130.64)" d="M 267.1 130.601 L 266.5 130.101 C 264.9 129.401 264.2 127.501 265 126.101 L 267.7 120.601 C 268.3 119.201 270.1 118.601 271.6 119.401 L 272.2 119.801 C 273.7 120.601 274.5 122.401 273.7 123.801 L 270.9 129.301 C 270.4 130.801 268.6 131.301 267.1 130.601 Z M 295.1 141.901 L 294.5 141.701 C 292.9 141.001 292.1 139.201 292.7 137.801 L 294.9 132.101 C 295.5 130.701 297.3 130.001 298.8 130.701 L 299.5 131.001 C 301.1 131.701 301.9 133.501 301.2 134.901 L 299 140.601 C 298.4 142.001 296.7 142.601 295.3 142.001 C 295.2 142.001 295.2 141.901 295.1 141.901 Z" stroke-linecap="round" />
</g>
		<g transform="matrix(1 0 0 1 -123.93 -12.61)" clip-path="url(#CLIPPATH_6)"  >
<clipPath id="CLIPPATH_6" >
	<rect transform="matrix(1 0 0 1 123.93 12.61)" id="clip0_11581_406869" x="-180" y="-100" rx="0" ry="0" width="360" height="200" />
</clipPath>
<path style="stroke: none; stroke-width: 1; stroke-dasharray: none; stroke-linecap: butt; stroke-dashoffset: 0; stroke-linejoin: miter; stroke-miterlimit: 4; fill: rgb(255,255,255); fill-rule: nonzero; opacity: 1;" vector-effect="non-scaling-stroke"  transform=" translate(-56.07, -87.39)" d="M 62.0997 82.8014 C 63.3997 86.5014 63.7997 95.3014 60.2997 96.6014 C 56.8997 97.8014 50.9997 91.0014 49.5997 87.3014 C 48.1997 83.6014 49.8997 79.6014 53.3997 78.4014 C 56.8997 77.2014 60.7997 79.1014 62.0997 82.8014 Z" stroke-linecap="round" />
</g>
		<g transform="matrix(1 0 0 1 141.03 -47.64)" clip-path="url(#CLIPPATH_7)"  >
<clipPath id="CLIPPATH_7" >
	<rect transform="matrix(1 0 0 1 -141.03 47.64)" id="clip0_11581_406869" x="-180" y="-100" rx="0" ry="0" width="360" height="200" />
</clipPath>
<path style="stroke: rgb(49,100,116); stroke-width: 1; stroke-dasharray: none; stroke-linecap: round; stroke-dashoffset: 0; stroke-linejoin: round; stroke-miterlimit: 4; fill: rgb(115,243,143); fill-rule: nonzero; opacity: 1;" vector-effect="non-scaling-stroke"  transform=" translate(-321.03, -52.36)" d="M 321.9 45.8033 C 321.9 45.8033 329.4 42.0033 332.4 46.0033 C 335.4 49.9033 334.3 55.3033 325.2 59.9033 C 319 63.1033 317.6 63.5033 317.6 63.5033 C 315.4 61.4033 313.4 59.1033 311.6 56.6033 C 309 53.1033 305.4 44.7033 311.6 41.9033 C 317.9 39.1033 321.9 45.9033 321.9 45.8033 Z" stroke-linecap="round" />
</g>
		<g transform="matrix(1 0 0 1 0 -11.1)" clip-path="url(#CLIPPATH_8)"  >
<clipPath id="CLIPPATH_8" >
	<rect transform="matrix(1 0 0 1 0 11.1)" id="clip0_11581_406869" x="-180" y="-100" rx="0" ry="0" width="360" height="200" />
</clipPath>
<path style="stroke: none; stroke-width: 1; stroke-dasharray: none; stroke-linecap: butt; stroke-dashoffset: 0; stroke-linejoin: miter; stroke-miterlimit: 4; fill: rgb(6,207,156); fill-opacity: 0.15; fill-rule: nonzero; opacity: 1;" vector-effect="non-scaling-stroke"  transform=" translate(-180, -88.9)" d="M 225.5 8.60156 L 134.5 8.60156 C 115.3 8.60156 99.6997 24.2016 99.6997 43.4016 L 99.6997 134.402 C 99.6997 153.602 115.3 169.202 134.5 169.202 L 225.5 169.202 C 244.7 169.202 260.3 153.602 260.3 134.402 L 260.3 43.4016 C 260.3 24.2016 244.7 8.60156 225.5 8.60156 Z" stroke-linecap="round" />
</g>
		<g transform="matrix(1 0 0 1 1.6 -33.35)" clip-path="url(#CLIPPATH_9)"  >
<clipPath id="CLIPPATH_9" >
	<rect transform="matrix(1 0 0 1 -1.6 33.35)" id="clip0_11581_406869" x="-180" y="-100" rx="0" ry="0" width="360" height="200" />
</clipPath>
<path style="stroke: rgb(49,100,116); stroke-width: 1; stroke-dasharray: none; stroke-linecap: round; stroke-dashoffset: 0; stroke-linejoin: round; stroke-miterlimit: 4; fill: rgb(115,243,143); fill-rule: nonzero; opacity: 1;" vector-effect="non-scaling-stroke"  transform=" translate(-181.6, -66.65)" d="M 181.6 75.3008 C 173.3 75.3008 166.6 68.6008 166.6 60.3008 C 166.6 52.0008 173.3 45.3008 181.6 45.3008 C 189.9 45.3008 196.6 52.0008 196.6 60.3008 C 196.6 68.6008 189.9 75.3008 181.6 75.3008 Z M 212.9 88.0008 C 206.5 88.0008 201.4 82.9008 201.4 76.5008 C 201.4 70.1008 206.5 65.0008 212.9 65.0008 C 219.3 65.0008 224.4 70.1008 224.4 76.5008 C 224.4 82.9008 219.3 88.0008 212.9 88.0008 Z M 150.3 88.0008 C 143.9 88.0008 138.8 82.9008 138.8 76.5008 C 138.8 70.1008 143.9 65.0008 150.3 65.0008 C 156.7 65.0008 161.8 70.1008 161.8 76.5008 C 161.8 82.9008 156.7 88.0008 150.3 88.0008 Z" stroke-linecap="round" />
</g>
		<g transform="matrix(1 0 0 1 -0.43 -31.2)" clip-path="url(#CLIPPATH_10)"  >
<clipPath id="CLIPPATH_10" >
	<rect transform="matrix(1 0 0 1 0.43 31.2)" id="clip0_11581_406869" x="-180" y="-100" rx="0" ry="0" width="360" height="200" />
</clipPath>
<path style="stroke: rgb(49,100,116); stroke-width: 1; stroke-dasharray: none; stroke-linecap: round; stroke-dashoffset: 0; stroke-linejoin: round; stroke-miterlimit: 4; fill: none; fill-rule: nonzero; opacity: 1;" vector-effect="non-scaling-stroke"  transform=" translate(-179.57, -68.8)" d="M 80.6998 10.4009 C 80.5998 13.5009 80.3998 17.8009 79.4998 19.0009 C 78.3998 20.5009 74.1998 21.5009 70.6998 22.1009 C 70.0998 22.2009 70.1998 23.1009 70.7998 23.1009 C 74.0998 23.3009 78.2998 23.6009 79.4998 24.6009 C 80.6998 25.7009 81.5998 30.0009 82.1998 33.3009 C 82.2998 33.9009 83.1998 33.8009 83.1998 33.2009 C 83.3998 29.7009 83.5998 25.3009 84.7998 24.1009 C 85.8998 22.9009 90.5998 22.1009 93.9998 21.5009 C 94.5998 21.4009 94.4998 20.5009 93.8998 20.5009 C 90.4998 20.4009 85.6998 20.2009 84.4998 19.2009 C 83.1998 18.1009 82.2998 13.8009 81.6998 10.3009 C 81.5998 9.80085 80.6998 9.80085 80.6998 10.4009 Z M 21.5998 105.901 C 21.0998 108.801 20.3998 112.701 19.4998 113.701 C 18.3998 114.901 14.3998 115.401 10.9998 115.501 C 10.3998 115.501 10.3998 116.301 10.9998 116.401 C 13.9998 116.901 17.8998 117.701 18.8998 118.801 C 19.8998 119.901 20.1998 124.001 20.3998 127.201 C 20.3998 127.801 21.2998 127.801 21.3998 127.301 C 21.8998 124.101 22.6998 120.101 23.8998 119.101 C 24.9998 118.201 29.4998 117.901 32.6998 117.701 C 33.2998 117.701 33.2998 116.901 32.6998 116.801 C 29.4998 116.301 25.1998 115.501 24.1998 114.501 C 23.0998 113.401 22.7998 109.201 22.5998 106.001 C 22.5998 105.401 21.7998 105.301 21.5998 105.901 Z M 339.4 99.1009 C 338.5 101.801 337.3 105.301 336.3 106.101 C 335 107.101 331.2 106.901 328.1 106.601 C 327.6 106.501 327.4 107.301 327.9 107.501 C 330.7 108.401 334.2 109.701 334.9 110.901 C 335.6 112.101 335.4 116.001 335.1 119.001 C 335.1 119.501 335.8 119.701 336 119.201 C 337 116.301 338.3 112.601 339.6 111.801 C 340.8 111.101 345 111.501 348.1 111.801 C 348.6 111.901 348.8 111.101 348.3 110.901 C 345.4 110.001 341.4 108.601 340.6 107.501 C 339.7 106.301 340 102.301 340.3 99.3009 C 340.3 98.8009 339.6 98.6009 339.4 99.1009 Z" stroke-linecap="round" />
</g>
		<g transform="matrix(1 0 0 1 -109.94 -16.11)" clip-path="url(#CLIPPATH_11)"  >
<clipPath id="CLIPPATH_11" >
	<rect transform="matrix(1 0 0 1 109.94 16.11)" id="clip0_11581_406869" x="-180" y="-100" rx="0" ry="0" width="360" height="200" />
</clipPath>
<path style="stroke: none; stroke-width: 1; stroke-dasharray: none; stroke-linecap: butt; stroke-dashoffset: 0; stroke-linejoin: miter; stroke-miterlimit: 4; fill: rgb(252,245,235); fill-rule: nonzero; opacity: 1;" vector-effect="non-scaling-stroke"  transform=" translate(-70.06, -83.89)" d="M 99.9997 64.202 C 98.0997 60.402 95.2997 57.102 91.7997 54.602 C 85.3997 49.902 76.3997 52.302 71.7997 55.902 C 69.5997 57.602 68.6997 60.302 66.6997 62.102 C 65.4997 63.202 63.8997 63.902 62.2997 64.202 L 62.0997 64.202 C 60.1997 64.502 58.2997 64.002 56.3997 64.202 C 52.4997 64.502 49.0997 66.502 46.0997 68.902 C 38.5997 75.002 38.1997 86.202 43.9997 96.002 C 53.0997 111.602 70.2997 116.902 77.8997 115.602 C 85.4997 114.302 84.7997 110.302 89.2997 107.202 C 93.6997 104.302 95.9997 105.702 100.1 102.802" stroke-linecap="round" />
</g>
		<g transform="matrix(1 0 0 1 -109.94 -16.11)" clip-path="url(#CLIPPATH_12)"  >
<clipPath id="CLIPPATH_12" >
	<rect transform="matrix(1 0 0 1 109.94 16.11)" id="clip0_11581_406869" x="-180" y="-100" rx="0" ry="0" width="360" height="200" />
</clipPath>
<path style="stroke: rgb(49,100,116); stroke-width: 1; stroke-dasharray: none; stroke-linecap: round; stroke-dashoffset: 0; stroke-linejoin: round; stroke-miterlimit: 4; fill: none; fill-rule: nonzero; opacity: 1;" vector-effect="non-scaling-stroke"  transform=" translate(-70.06, -83.89)" d="M 99.9997 64.202 C 98.0997 60.402 95.2997 57.102 91.7997 54.602 C 85.3997 49.902 76.3997 52.302 71.7997 55.902 C 69.5997 57.602 68.6997 60.302 66.6997 62.102 C 65.4997 63.202 63.8997 63.902 62.2997 64.202 L 62.0997 64.202 C 60.1997 64.502 58.2997 64.002 56.3997 64.202 C 52.4997 64.502 49.0997 66.502 46.0997 68.902 C 38.5997 75.002 38.1997 86.202 43.9997 96.002 C 53.0997 111.602 70.2997 116.902 77.8997 115.602 C 85.4997 114.302 84.7997 110.302 89.2997 107.202 C 93.6997 104.302 95.9997 105.702 100.1 102.802" stroke-linecap="round" />
</g>
		<g transform="matrix(1 0 0 1 -117.18 -49.56)" clip-path="url(#CLIPPATH_13)"  >
<clipPath id="CLIPPATH_13" >
	<rect transform="matrix(1 0 0 1 117.18 49.56)" id="clip0_11581_406869" x="-180" y="-100" rx="0" ry="0" width="360" height="200" />
</clipPath>
<path style="stroke: rgb(49,100,116); stroke-width: 1; stroke-dasharray: none; stroke-linecap: round; stroke-dashoffset: 0; stroke-linejoin: round; stroke-miterlimit: 4; fill: rgb(115,243,143); fill-rule: nonzero; opacity: 1;" vector-effect="non-scaling-stroke"  transform=" translate(-62.82, -50.44)" d="M 63.0997 63.9022 C 63.6997 63.9022 70.7997 56.8022 70.0997 49.6022 C 69.5997 44.0022 64.2997 36.4022 61.8997 37.0022 C 60.8997 37.2022 55.1997 45.3022 55.4997 51.1022 C 55.7997 58.6022 62.6997 63.9022 63.0997 63.9022 Z" stroke-linecap="round" />
</g>
		<g transform="matrix(1 0 0 1 -124.14 -12.13)" clip-path="url(#CLIPPATH_14)"  >
<clipPath id="CLIPPATH_14" >
	<rect transform="matrix(1 0 0 1 124.14 12.13)" id="clip0_11581_406869" x="-180" y="-100" rx="0" ry="0" width="360" height="200" />
</clipPath>
<path style="stroke: none; stroke-width: 1; stroke-dasharray: none; stroke-linecap: butt; stroke-dashoffset: 0; stroke-linejoin: miter; stroke-miterlimit: 4; fill: rgb(255,255,255); fill-rule: nonzero; opacity: 1;" vector-effect="non-scaling-stroke"  transform=" translate(-55.86, -87.87)" d="M 61.5 82.7012 C 63.3 86.4012 64.5 95.5012 61.1 97.1012 C 57.7 98.7012 50.9 92.3012 49.2 88.6012 C 47.5 84.9012 48.8 80.6012 52.2 79.0012 C 55.5 77.4012 59.7 79.0012 61.5 82.7012 Z" stroke-linecap="round" />
</g>
		<g transform="matrix(1 0 0 1 0.93 5.3)" clip-path="url(#CLIPPATH_15)"  >
<clipPath id="CLIPPATH_15" >
	<rect transform="matrix(1 0 0 1 -0.93 -5.3)" id="clip0_11581_406869" x="-180" y="-100" rx="0" ry="0" width="360" height="200" />
</clipPath>
<path style="stroke: rgb(49,100,116); stroke-width: 1; stroke-dasharray: none; stroke-linecap: round; stroke-dashoffset: 0; stroke-linejoin: round; stroke-miterlimit: 4; fill: rgb(115,243,143); fill-rule: nonzero; opacity: 1;" vector-effect="non-scaling-stroke"  transform=" translate(-180.93, -105.3)" d="M 169.7 106.302 C 165.3 99.2023 157.5 94.9023 149.1 94.9023 L 148.8 94.9023 C 140.4 94.9023 132.7 99.2023 128.2 106.302 C 127 108.202 126.9 110.602 128 112.502 C 129.1 114.502 131.1 115.702 133.4 115.702 L 164.6 115.702 C 166.8 115.702 168.9 114.502 170 112.502 C 171.1 110.502 170.9 108.202 169.7 106.302 Z M 233.6 106.302 C 229.2 99.2023 221.4 94.9023 213 94.9023 L 212.7 94.9023 C 204.3 94.9023 196.6 99.2023 192.1 106.302 C 190.9 108.202 190.8 110.602 191.9 112.502 C 193 114.402 195 115.702 197.3 115.702 L 228.5 115.702 C 230.7 115.702 232.8 114.502 233.9 112.502 C 235 110.502 234.8 108.202 233.6 106.302 Z" stroke-linecap="round" />
</g>
		<g transform="matrix(1 0 0 1 93.14 -69.13)" clip-path="url(#CLIPPATH_16)"  >
<clipPath id="CLIPPATH_16" >
	<rect transform="matrix(1 0 0 1 -93.14 69.13)" id="clip0_11581_406869" x="-180" y="-100" rx="0" ry="0" width="360" height="200" />
</clipPath>
<path style="stroke: none; stroke-width: 1; stroke-dasharray: none; stroke-linecap: butt; stroke-dashoffset: 0; stroke-linejoin: miter; stroke-miterlimit: 4; fill: rgb(255,255,255); fill-rule: nonzero; opacity: 1;" vector-effect="non-scaling-stroke"  transform=" translate(-273.14, -30.87)" d="M 291.2 22.6 C 288 15.2 280.6 10 272 10 C 263.4 10 256.8 14.2 253.4 21.4 L 254 23.5 C 258.1 29.3 260.3 36.3 260.3 43.4 L 260.3 46.1 L 261 48.6 C 270.8 54.7 283.7 51.6 289.8 41.8 C 293.3 36 293.9 28.9 291.2 22.6 Z" stroke-linecap="round" />
</g>
		<g transform="matrix(1 0 0 1 93.02 -69)" clip-path="url(#CLIPPATH_17)"  >
<clipPath id="CLIPPATH_17" >
	<rect transform="matrix(1 0 0 1 -93.02 69)" id="clip0_11581_406869" x="-180" y="-100" rx="0" ry="0" width="360" height="200" />
</clipPath>
<path style="stroke: none; stroke-width: 1; stroke-dasharray: none; stroke-linecap: butt; stroke-dashoffset: 0; stroke-linejoin: miter; stroke-miterlimit: 4; fill: rgb(255,255,255); fill-rule: nonzero; opacity: 1;" vector-effect="non-scaling-stroke"  transform=" translate(-273.02, -31)" d="M 275.2 36.7016 C 271 35.4016 265.1 31.2016 265.1 23.6016 C 265.1 31.2016 271.1 35.4016 275.2 36.7016 Z M 275.2 36.7016 C 275.8 41.2016 275.2 46.9016 275.7 51.4016 L 275.2 36.7016 Z M 275.2 36.7016 C 278.4 37.7016 283.2 35.0016 285.6 33.0016 C 288.3 30.7016 291.5 26.3016 291.1 22.6016 M 279.4 11.4016 C 279.3 16.6016 271.4 28.3016 267.9 31.7016 L 279.4 11.4016 Z M 272 10.6016 C 272.3 16.1016 270.3 19.8016 265.1 23.7016 L 272 10.6016 Z M 270.2 18.5016 C 267.9 16.8016 256.8 17.5016 254.9 19.0016 C 256.7 17.6016 267.9 16.9016 270.2 18.5016 Z M 275.5 47.6016 C 269.4 46.7016 263.9 43.4016 260.2 38.4016 L 275.5 47.6016 Z" stroke-linecap="round" />
</g>
		<g transform="matrix(1 0 0 1 93.02 -69)" clip-path="url(#CLIPPATH_18)"  >
<clipPath id="CLIPPATH_18" >
	<rect transform="matrix(1 0 0 1 -93.02 69)" id="clip0_11581_406869" x="-180" y="-100" rx="0" ry="0" width="360" height="200" />
</clipPath>
<path style="stroke: rgb(49,100,116); stroke-width: 1; stroke-dasharray: none; stroke-linecap: round; stroke-dashoffset: 0; stroke-linejoin: round; stroke-miterlimit: 4; fill: none; fill-rule: nonzero; opacity: 1;" vector-effect="non-scaling-stroke"  transform=" translate(-273.02, -31)" d="M 275.2 36.7016 C 271 35.4016 265.1 31.2016 265.1 23.6016 C 265.1 31.2016 271.1 35.4016 275.2 36.7016 Z M 275.2 36.7016 C 275.8 41.2016 275.2 46.9016 275.7 51.4016 M 275.2 36.7016 C 278.4 37.7016 283.2 35.0016 285.6 33.0016 C 288.3 30.7016 291.5 26.3016 291.1 22.6016 M 279.4 11.4016 C 279.3 16.6016 271.4 28.3016 267.9 31.7016 M 272 10.6016 C 272.3 16.1016 270.3 19.8016 265.1 23.7016 M 275.5 47.6016 C 269.4 46.7016 263.9 43.4016 260.2 38.4016 M 270.2 18.5016 C 267.9 16.8016 256.8 17.5016 254.9 19.0016 C 256.7 17.6016 267.9 16.9016 270.2 18.5016 Z" stroke-linecap="round" />
</g>
		<g transform="matrix(1 0 0 1 79.5 -76.58)" clip-path="url(#CLIPPATH_19)"  >
<clipPath id="CLIPPATH_19" >
	<rect transform="matrix(1 0 0 1 -79.5 76.58)" id="clip0_11581_406869" x="-180" y="-100" rx="0" ry="0" width="360" height="200" />
</clipPath>
<path style="stroke: rgb(49,100,116); stroke-width: 1; stroke-dasharray: none; stroke-linecap: round; stroke-dashoffset: 0; stroke-linejoin: round; stroke-miterlimit: 4; fill: none; fill-rule: nonzero; opacity: 1;" vector-effect="non-scaling-stroke"  transform=" translate(-259.5, -23.42)" d="M 253.9 22.6016 C 255.2 23.3016 255.8 23.8016 257.2 24.0016 C 261.7 24.6016 263.9 23.9016 265.1 23.6016" stroke-linecap="round" />
</g>
		<g transform="matrix(1 0 0 1 0.3 -11.1)" clip-path="url(#CLIPPATH_20)"  >
<clipPath id="CLIPPATH_20" >
	<rect transform="matrix(1 0 0 1 -0.3 11.1)" id="clip0_11581_406869" x="-180" y="-100" rx="0" ry="0" width="360" height="200" />
</clipPath>
<path style="stroke: rgb(49,100,116); stroke-width: 1; stroke-dasharray: none; stroke-linecap: round; stroke-dashoffset: 0; stroke-linejoin: round; stroke-miterlimit: 4; fill: none; fill-rule: nonzero; opacity: 1;" vector-effect="non-scaling-stroke"  transform=" translate(-180.3, -88.9)" d="M 225.8 8.60156 L 134.8 8.60156 C 115.6 8.60156 100 24.2016 100 43.4016 L 100 134.402 C 100 153.602 115.6 169.202 134.8 169.202 L 225.8 169.202 C 245 169.202 260.6 153.602 260.6 134.402 L 260.6 43.4016 C 260.6 24.2016 245 8.60156 225.8 8.60156 Z" stroke-linecap="round" />
</g>
		<g transform="matrix(1 0 0 1 44.25 48.53)" clip-path="url(#CLIPPATH_21)"  >
<clipPath id="CLIPPATH_21" >
	<rect transform="matrix(1 0 0 1 -44.25 -48.53)" id="clip0_11581_406869" x="-180" y="-100" rx="0" ry="0" width="360" height="200" />
</clipPath>
<path style="stroke: rgb(49,100,116); stroke-width: 1; stroke-dasharray: none; stroke-linecap: round; stroke-dashoffset: 0; stroke-linejoin: round; stroke-miterlimit: 4; fill: rgb(255,255,255); fill-rule: nonzero; opacity: 1;" vector-effect="non-scaling-stroke"  transform=" translate(-224.25, -148.53)" d="M 221.6 137.299 C 223.1 136.099 226.2 133.899 229.9 138.799 C 233.6 143.699 234.8 146.299 235.3 147.799 C 235.8 149.299 236.5 151.799 232.9 154.299 L 223.4 161.299 C 221.7 154.499 218 148.399 212.8 143.799 L 221.6 137.299 Z" stroke-linecap="round" />
</g>
		<g transform="matrix(1 0 0 1 12.17 70.83)" clip-path="url(#CLIPPATH_22)"  >
<clipPath id="CLIPPATH_22" >
	<rect transform="matrix(1 0 0 1 -12.17 -70.83)" id="clip0_11581_406869" x="-180" y="-100" rx="0" ry="0" width="360" height="200" />
</clipPath>
<path style="stroke: none; stroke-width: 1; stroke-dasharray: none; stroke-linecap: butt; stroke-dashoffset: 0; stroke-linejoin: miter; stroke-miterlimit: 4; fill: rgb(255,255,255); fill-rule: nonzero; opacity: 1;" vector-effect="non-scaling-stroke"  transform=" translate(-192.17, -170.83)" d="M 194.1 162.498 C 198.3 163.398 201 169.998 201 169.998 C 204 170.098 200.1 175.998 200.1 175.998 L 198.6 178.898 L 196 179.398 C 194.2 179.698 190.2 179.898 186.9 179.898 L 183.9 179.398 C 183.9 179.398 183 178.898 182.8 176.898 L 182.2 174.498 C 183.7 170.098 185.5 165.898 187.6 161.798 C 187.5 161.898 187.7 161.698 187.6 161.798 C 189.6 163.198 194.1 162.498 194.1 162.498 Z" stroke-linecap="round" />
</g>
		<g transform="matrix(1 0 0 1 12.17 70.75)" clip-path="url(#CLIPPATH_23)"  >
<clipPath id="CLIPPATH_23" >
	<rect transform="matrix(1 0 0 1 -12.17 -70.75)" id="clip0_11581_406869" x="-180" y="-100" rx="0" ry="0" width="360" height="200" />
</clipPath>
<path style="stroke: rgb(49,100,116); stroke-width: 1; stroke-dasharray: none; stroke-linecap: round; stroke-dashoffset: 0; stroke-linejoin: round; stroke-miterlimit: 4; fill: none; fill-rule: nonzero; opacity: 1;" vector-effect="non-scaling-stroke"  transform=" translate(-192.17, -170.75)" d="M 187.6 161.699 C 185.5 165.799 183.7 169.999 182.2 174.399 L 182.8 176.799 C 183 178.699 183.9 179.299 183.9 179.299 L 186.9 179.799 C 190.8 179.799 194.7 179.499 198.6 178.799 L 200.1 175.899 C 200.1 175.899 204 169.999 201 169.899 C 201 169.899 198.3 163.199 194.1 162.399 C 194.1 162.499 189.6 163.199 187.6 161.699 Z M 187.6 161.699 C 187.5 161.899 187.7 161.699 187.6 161.699 Z" stroke-linecap="round" />
</g>
		<g transform="matrix(1 0 0 1 22.26 61.9)" clip-path="url(#CLIPPATH_24)"  >
<clipPath id="CLIPPATH_24" >
	<rect transform="matrix(1 0 0 1 -22.26 -61.9)" id="clip0_11581_406869" x="-180" y="-100" rx="0" ry="0" width="360" height="200" />
</clipPath>
<path style="stroke: rgb(49,100,116); stroke-width: 1; stroke-dasharray: none; stroke-linecap: round; stroke-dashoffset: 0; stroke-linejoin: round; stroke-miterlimit: 4; fill: rgb(115,243,143); fill-rule: nonzero; opacity: 1;" vector-effect="non-scaling-stroke"  transform=" translate(-202.26, -161.9)" d="M 212.8 143.898 C 215.9 146.298 221.7 153.098 223.4 161.398 L 220.1 163.598 C 211.3 169.798 199.3 178.598 198.7 178.998 L 197.9 178.898 C 197.9 178.898 197.4 172.298 194.3 172.198 C 194.3 172.198 194.4 167.198 190.2 166.398 C 190.2 166.398 189.9 163.298 187.7 161.898 C 191.9 157.898 200 152.698 207.8 147.298 L 212.8 143.898 Z M 182.7 173.798 C 187.4 176.098 186.9 179.898 186.9 179.898 C 186.9 179.898 181.8 179.698 181.2 179.098 C 180.9 178.698 181.4 176.698 182.3 174.198 L 182.7 173.798 Z" stroke-linecap="round" />
</g>
		<g transform="matrix(1 0 0 1 44.6 47.5)" clip-path="url(#CLIPPATH_25)"  >
<clipPath id="CLIPPATH_25" >
	<rect transform="matrix(1 0 0 1 -44.6 -47.5)" id="clip0_11581_406869" x="-180" y="-100" rx="0" ry="0" width="360" height="200" />
</clipPath>
<path style="stroke: none; stroke-width: 1; stroke-dasharray: none; stroke-linecap: butt; stroke-dashoffset: 0; stroke-linejoin: miter; stroke-miterlimit: 4; fill: rgb(255,255,255); fill-rule: nonzero; opacity: 1;" vector-effect="non-scaling-stroke"  transform=" translate(-224.6, -147.5)" d="M 219.6 138.898 C 224.7 143.398 228.2 149.398 229.6 156.098 L 219.6 138.898 Z" stroke-linecap="round" />
</g>
		<g transform="matrix(1 0 0 1 44.6 47.5)" clip-path="url(#CLIPPATH_26)"  >
<clipPath id="CLIPPATH_26" >
	<rect transform="matrix(1 0 0 1 -44.6 -47.5)" id="clip0_11581_406869" x="-180" y="-100" rx="0" ry="0" width="360" height="200" />
</clipPath>
<path style="stroke: rgb(49,100,116); stroke-width: 1; stroke-dasharray: none; stroke-linecap: round; stroke-dashoffset: 0; stroke-linejoin: round; stroke-miterlimit: 4; fill: none; fill-rule: nonzero; opacity: 1;" vector-effect="non-scaling-stroke"  transform=" translate(-224.6, -147.5)" d="M 219.6 138.898 C 224.7 143.398 228.2 149.398 229.6 156.098" stroke-linecap="round" />
</g>
		<g transform="matrix(1 0 0 1 3.24 0)" clip-path="url(#CLIPPATH_27)"  >
<clipPath id="CLIPPATH_27" >
	<rect transform="matrix(1 0 0 1 -3.24 0)" id="clip0_11581_406869" x="-180" y="-100" rx="0" ry="0" width="360" height="200" />
</clipPath>
<path style="stroke: rgb(49,100,116); stroke-width: 1; stroke-dasharray: none; stroke-linecap: round; stroke-dashoffset: 0; stroke-linejoin: round; stroke-miterlimit: 4; fill: rgb(115,243,143); fill-rule: nonzero; opacity: 1;" vector-effect="non-scaling-stroke"  transform=" translate(-183.24, -100)" d="M 214.6 101.501 C 207.9 90.8008 196.1 84.3008 183.5 84.3008 L 183 84.3008 C 170.4 84.3008 158.6 90.8008 151.9 101.501 C 150.1 104.301 150 107.901 151.6 110.901 C 153.2 113.801 156.3 115.701 159.7 115.701 L 206.7 115.701 C 210.1 115.701 213.2 113.901 214.8 110.901 C 216.5 108.001 216.4 104.301 214.6 101.501 Z" stroke-linecap="round" />
</g>
		<g transform="matrix(1 0 0 1 -108.39 52.65)" clip-path="url(#CLIPPATH_28)"  >
<clipPath id="CLIPPATH_28" >
	<rect transform="matrix(1 0 0 1 108.39 -52.65)" id="clip0_11581_406869" x="-180" y="-100" rx="0" ry="0" width="360" height="200" />
</clipPath>
<path style="stroke: none; stroke-width: 1; stroke-dasharray: none; stroke-linecap: butt; stroke-dashoffset: 0; stroke-linejoin: miter; stroke-miterlimit: 4; fill: rgb(255,255,255); fill-rule: nonzero; opacity: 1;" vector-effect="non-scaling-stroke"  transform=" translate(-71.61, -152.65)" d="M 48.5003 186.602 C 51.1003 186.202 72.2003 179.402 79.5003 176.402 C 79.5003 176.402 108.3 171.102 110.6 170.302 C 114.1 169.002 113.8 168.002 113.3 165.202 C 112.8 162.402 107.5 129.802 106.4 124.902 C 105.3 120.302 102.7 121.002 100.2 121.502 L 100.3 121.402 C 99.1003 118.102 96.1003 118.502 94.4003 119.102 L 72.0003 128.702 C 70.7003 128.702 69.3003 128.402 67.2003 129.102 C 65.1003 129.902 65.4003 130.602 65.4003 130.602 C 63.6003 130.102 40.3003 135.002 35.6003 136.002 C 30.8003 137.002 29.2003 139.302 29.7003 141.502 C 30.4003 145.002 38.4003 174.302 40.2003 180.402 C 41.6003 185.002 43.4003 186.302 45.5003 186.402" stroke-linecap="round" />
</g>
		<g transform="matrix(1 0 0 1 -108.44 52.37)" clip-path="url(#CLIPPATH_29)"  >
<clipPath id="CLIPPATH_29" >
	<rect transform="matrix(1 0 0 1 108.44 -52.37)" id="clip0_11581_406869" x="-180" y="-100" rx="0" ry="0" width="360" height="200" />
</clipPath>
<path style="stroke: rgb(49,100,116); stroke-width: 1; stroke-dasharray: none; stroke-linecap: round; stroke-dashoffset: 0; stroke-linejoin: round; stroke-miterlimit: 4; fill: none; fill-rule: nonzero; opacity: 1;" vector-effect="non-scaling-stroke"  transform=" translate(-71.56, -152.37)" d="M 71.9002 128.6 L 94.4002 118.9 C 96.1002 118.2 99.1002 117.9 100.3 121.2 M 72.0002 128.6 C 72.0002 128.6 97.9002 121.8 99.7002 121.5 C 102.4 121 105.2 119.9 106.4 124.8 C 107.5 129.7 112.8 162.3 113.3 165.1 C 113.8 167.9 114.1 169 110.6 170.2 C 108.2 171.1 87.1002 174.5 79.9002 176.2 M 65.3002 130.5 C 63.5002 130 40.2002 134.9 35.5002 135.9 C 30.7002 136.9 29.1002 139.2 29.6002 141.4 C 30.3002 144.9 38.3002 174.2 40.1002 180.3 C 41.5002 184.9 43.3002 186.2 45.4002 186.3" stroke-linecap="round" />
</g>
		<g transform="matrix(1 0 0 1 -127.69 57.54)" clip-path="url(#CLIPPATH_30)"  >
<clipPath id="CLIPPATH_30" >
	<rect transform="matrix(1 0 0 1 127.69 -57.54)" id="clip0_11581_406869" x="-180" y="-100" rx="0" ry="0" width="360" height="200" />
</clipPath>
<path style="stroke: rgb(49,100,116); stroke-width: 1; stroke-dasharray: none; stroke-linecap: round; stroke-dashoffset: 0; stroke-linejoin: round; stroke-miterlimit: 4; fill: none; fill-rule: nonzero; opacity: 1;" vector-effect="non-scaling-stroke"  transform=" translate(-52.31, -157.54)" d="M 48.5003 186.602 C 45.5003 187.102 44.7003 185.202 43.5003 180.402 C 42.3003 175.602 33.2003 144.002 32.8003 141.902 C 32.3003 139.802 32.6003 138.402 37.1003 137.302 C 40.5003 136.402 65.9003 130.802 65.9003 130.802 C 65.9003 130.802 65.1003 129.702 67.2003 128.902 C 69.3003 128.102 70.7003 128.502 72.0003 128.502" stroke-linecap="round" />
</g>
		<g transform="matrix(1 0 0 1 -116 61.9)" clip-path="url(#CLIPPATH_31)"  >
<clipPath id="CLIPPATH_31" >
	<rect transform="matrix(1 0 0 1 116 -61.9)" id="clip0_11581_406869" x="-180" y="-100" rx="0" ry="0" width="360" height="200" />
</clipPath>
<path style="stroke: rgb(49,100,116); stroke-width: 1; stroke-dasharray: none; stroke-linecap: round; stroke-dashoffset: 0; stroke-linejoin: round; stroke-miterlimit: 4; fill: none; fill-rule: nonzero; opacity: 1;" vector-effect="non-scaling-stroke"  transform=" translate(-64, -161.9)" d="M 79.5 176.301 C 72.2 179.301 51.1 186.101 48.5 186.501 M 70.2 137.301 L 78.6 171.601" stroke-linecap="round" />
</g>
		<g transform="matrix(1 0 0 1 -121.78 64.99)" clip-path="url(#CLIPPATH_32)"  >
<clipPath id="CLIPPATH_32" >
	<rect transform="matrix(1 0 0 1 121.78 -64.99)" id="clip0_11581_406869" x="-180" y="-100" rx="0" ry="0" width="360" height="200" />
</clipPath>
<path style="stroke: rgb(49,100,116); stroke-width: 1; stroke-dasharray: none; stroke-linecap: round; stroke-dashoffset: 0; stroke-linejoin: round; stroke-miterlimit: 4; fill: rgb(115,243,143); fill-rule: nonzero; opacity: 1;" vector-effect="non-scaling-stroke"  transform=" translate(-58.22, -164.99)" d="M 56.3003 174.202 C 55.1003 174.002 54.0003 173.502 52.9003 172.902 C 51.8003 172.302 51.0003 171.302 50.3003 170.302 C 49.6003 169.302 49.1003 168.102 48.9003 166.902 C 48.7003 165.702 48.6003 164.402 48.9003 163.202 C 49.9003 158.102 54.9003 154.702 60.0003 155.702 C 61.2003 155.902 62.4003 156.302 63.4003 157.002 C 64.4003 157.702 65.3003 158.502 66.0003 159.602 C 66.7003 160.602 67.2003 161.802 67.5003 163.002 C 67.8003 164.202 67.8003 165.502 67.5003 166.802 C 67.2003 168.002 66.7003 169.202 66.1003 170.302 C 64.0003 173.502 60.1003 175.102 56.3003 174.202 Z" stroke-linecap="round" />
</g>
		<g transform="matrix(1 0 0 1 -109.18 54.31)" clip-path="url(#CLIPPATH_33)"  >
<clipPath id="CLIPPATH_33" >
	<rect transform="matrix(1 0 0 1 109.18 -54.31)" id="clip0_11581_406869" x="-180" y="-100" rx="0" ry="0" width="360" height="200" />
</clipPath>
<path style="stroke: rgb(49,100,116); stroke-width: 1; stroke-dasharray: none; stroke-linecap: round; stroke-dashoffset: 0; stroke-linejoin: round; stroke-miterlimit: 4; fill: none; fill-rule: nonzero; opacity: 1;" vector-effect="non-scaling-stroke"  transform=" translate(-70.82, -154.31)" d="M 52.9001 164.801 C 52.8001 164.501 53.2001 164.201 53.5001 164.101 C 56.3001 163.201 59.1001 162.001 62.0001 161.201 C 61.6001 162.301 52.9001 164.801 52.9001 164.801 Z M 54.3001 169.301 C 54.3001 169.001 54.6001 168.701 54.9001 168.701 C 57.8001 167.801 60.6001 166.601 63.5001 165.801 C 63.0001 167.001 54.4001 169.501 54.3001 169.301 Z M 47.5001 148.501 C 47.3001 148.201 47.7001 147.901 48.0001 147.901 C 50.9001 146.901 54.9001 146.501 57.8001 145.701 C 54.5001 147.101 51.0001 148.001 47.5001 148.501 Z M 84.6001 141.101 C 84.6001 140.801 85.0001 140.601 85.3001 140.601 C 88.3001 140.101 91.2001 139.601 94.2001 139.301 C 93.4001 140.401 84.6001 141.101 84.6001 141.101 Z" stroke-linecap="round" />
</g>
		<g transform="matrix(1 0 0 1 -88.15 49.15)" clip-path="url(#CLIPPATH_34)"  >
<clipPath id="CLIPPATH_34" >
	<rect transform="matrix(1 0 0 1 88.15 -49.15)" id="clip0_11581_406869" x="-180" y="-100" rx="0" ry="0" width="360" height="200" />
</clipPath>
<path style="stroke: rgb(49,100,116); stroke-width: 1; stroke-dasharray: none; stroke-linecap: round; stroke-dashoffset: 0; stroke-linejoin: round; stroke-miterlimit: 4; fill: none; fill-rule: nonzero; opacity: 1;" vector-effect="non-scaling-stroke"  transform=" translate(-91.85, -149.15)" d="M 88.6003 136.202 C 88.5003 135.902 88.3003 135.602 88.0003 135.602 C 87.9003 135.602 89.6003 144.302 90.7003 144.902 C 90.2003 141.902 89.3003 139.102 88.6003 136.202 Z M 90.2003 162.702 C 89.9003 162.502 90.1003 161.902 90.3003 161.602 C 92.1003 158.202 93.8003 154.702 95.7003 151.402 C 94.4003 155.402 92.6003 159.202 90.2003 162.702 Z" stroke-linecap="round" />
</g>
		<g transform="matrix(1 0 0 1 -87.1 57.02)" clip-path="url(#CLIPPATH_35)"  >
<clipPath id="CLIPPATH_35" >
	<rect transform="matrix(1 0 0 1 87.1 -57.02)" id="clip0_11581_406869" x="-180" y="-100" rx="0" ry="0" width="360" height="200" />
</clipPath>
<path style="stroke: rgb(49,100,116); stroke-width: 1; stroke-dasharray: none; stroke-linecap: round; stroke-dashoffset: 0; stroke-linejoin: round; stroke-miterlimit: 4; fill: none; fill-rule: nonzero; opacity: 1;" vector-effect="non-scaling-stroke"  transform=" translate(-92.9, -157.02)" d="M 87.2 154.399 C 87.4 153.999 88 154.199 88.3 154.399 C 91.7 156.099 95.3 157.799 98.6 159.799 C 97 160.599 87.1 154.499 87.2 154.399 Z" stroke-linecap="round" />
</g>
		<g transform="matrix(1 0 0 1 93.19 -69.11)" clip-path="url(#CLIPPATH_36)"  >
<clipPath id="CLIPPATH_36" >
	<rect transform="matrix(1 0 0 1 -93.19 69.11)" id="clip0_11581_406869" x="-180" y="-100" rx="0" ry="0" width="360" height="200" />
</clipPath>
<path style="stroke: rgb(49,100,116); stroke-width: 1; stroke-dasharray: none; stroke-linecap: round; stroke-dashoffset: 0; stroke-linejoin: round; stroke-miterlimit: 4; fill: none; fill-rule: nonzero; opacity: 1;" vector-effect="non-scaling-stroke"  transform=" translate(-273.19, -30.89)" d="M 261 48.6 C 270.8 54.7 283.7 51.8 289.8 42 C 295.9 32.2 293 19.3 283.2 13.2 C 279.9 11.1 276 10 272 10 C 263.4 10 256.8 14.2 253.4 21.4" stroke-linecap="round" />
</g>
		<g transform="matrix(1 0 0 1 100.55 -73.7)" clip-path="url(#CLIPPATH_37)"  >
<clipPath id="CLIPPATH_37" >
	<rect transform="matrix(1 0 0 1 -100.55 73.7)" id="clip0_11581_406869" x="-180" y="-100" rx="0" ry="0" width="360" height="200" />
</clipPath>
<path style="stroke: rgb(49,100,116); stroke-width: 1; stroke-dasharray: none; stroke-linecap: round; stroke-dashoffset: 0; stroke-linejoin: round; stroke-miterlimit: 4; fill: rgb(255,255,255); fill-rule: nonzero; opacity: 1;" vector-effect="non-scaling-stroke"  transform=" translate(-280.55, -26.3)" d="M 275.2 36.6984 C 280.4 31.1984 285.9 19.6984 285.9 15.8984 C 285.9 19.6984 280.5 31.1984 275.2 36.6984 Z" stroke-linecap="round" />
</g>
		<g transform="matrix(1 0 0 1 106.21 -60.65)" clip-path="url(#CLIPPATH_38)"  >
<clipPath id="CLIPPATH_38" >
	<rect transform="matrix(1 0 0 1 -106.21 60.65)" id="clip0_11581_406869" x="-180" y="-100" rx="0" ry="0" width="360" height="200" />
</clipPath>
<path style="stroke: rgb(49,100,116); stroke-width: 1; stroke-dasharray: none; stroke-linecap: round; stroke-dashoffset: 0; stroke-linejoin: round; stroke-miterlimit: 4; fill: rgb(255,255,255); fill-rule: nonzero; opacity: 1;" vector-effect="non-scaling-stroke"  transform=" translate(-286.21, -39.35)" d="M 285.9 32.8008 C 286.6 34.6008 286.5 44.0008 286.4 45.9008 C 286.6 43.9008 286.6 34.6008 285.9 32.8008 Z" stroke-linecap="round" />
</g>
</g>
</g>
</svg>