<?xml version="1.0" encoding="UTF-8" standalone="no" ?>
<!DOCTYPE svg PUBLIC "-//W3C//DTD SVG 1.1//EN" "http://www.w3.org/Graphics/SVG/1.1/DTD/svg11.dtd">
<svg xmlns="http://www.w3.org/2000/svg" xmlns:xlink="http://www.w3.org/1999/xlink" version="1.1" width="1080" height="1080" viewBox="0 0 1080 1080" xml:space="preserve">
<desc>Created with Fabric.js 5.2.4</desc>
<defs>
</defs>
<g transform="matrix(1 0 0 1 540 540)" id="44d99550-b9e7-4648-beaf-15ea737649c3"  >
<rect style="stroke: none; stroke-width: 1; stroke-dasharray: none; stroke-linecap: butt; stroke-dashoffset: 0; stroke-linejoin: miter; stroke-miterlimit: 4; fill: rgb(255,255,255); fill-rule: nonzero; opacity: 1; visibility: hidden;" vector-effect="non-scaling-stroke"  x="-540" y="-540" rx="0" ry="0" width="1080" height="1080" />
</g>
<g transform="matrix(1 0 0 1 540 540)" id="17e1c127-b2f1-4613-a414-9df7ef8204f2"  >
</g>
<g transform="matrix(3 0 0 3 540 540)"  >
<g style=""   >
		<g transform="matrix(1 0 0 1 44.9 1.3)" clip-path="url(#CLIPPATH_3)"  >
<clipPath id="CLIPPATH_3" >
	<rect transform="matrix(1 0 0 1 -44.9 -1.3)" id="clip0_995_68203" x="-180" y="-100" rx="0" ry="0" width="360" height="200" />
</clipPath>
<path style="stroke: none; stroke-width: 1; stroke-dasharray: none; stroke-linecap: butt; stroke-dashoffset: 0; stroke-linejoin: miter; stroke-miterlimit: 4; fill: rgb(6,207,156); fill-rule: nonzero; opacity: 0.15;" vector-effect="non-scaling-stroke"  transform=" translate(-224.9, -101.3)" d="M 308.2 59.5 L 306.6 59.5 C 303.8 59.5 301.6 61.8999 301.6 64.6999 C 301.6 67.4999 303.9 69.6999 306.6 69.6999 C 309.7 69.6999 312.1 72.2 312.1 75.2 L 312.1 185.9 C 312.1 190.9 308.1 194.9 303.1 194.9 L 135.6 194.9 C 130.6 194.9 126.6 190.9 126.6 185.9 L 126.6 64.6999 L 125.1 64.6999 C 120.1 64.6999 116.1 60.7 116.1 55.7 L 116.1 16.7 C 116.1 11.7 120.1 7.69995 125.1 7.69995 L 324.7 7.69995 C 329.7 7.69995 333.7 11.7 333.7 16.7 L 333.7 50.7 C 333.7 55.7 329.7 59.7 324.7 59.7 L 307.9 59.7" stroke-linecap="round" />
</g>
		<g transform="matrix(1 0 0 1 39.35 3.95)" clip-path="url(#CLIPPATH_4)"  >
<clipPath id="CLIPPATH_4" >
	<rect transform="matrix(1 0 0 1 -39.35 -3.95)" id="clip0_995_68203" x="-180" y="-100" rx="0" ry="0" width="360" height="200" />
</clipPath>
<path style="stroke: rgb(49,100,116); stroke-width: 1; stroke-dasharray: none; stroke-linecap: round; stroke-dashoffset: 0; stroke-linejoin: round; stroke-miterlimit: 4; fill: rgb(115,243,143); fill-rule: nonzero; opacity: 1;" vector-effect="non-scaling-stroke"  transform=" translate(-219.35, -103.95)" d="M 138.2 80.4 L 300.5 80.4 C 303.2 80.4 305.3 82.5 305.3 85.2 L 305.3 122.7 C 305.3 125.4 303.2 127.5 300.5 127.5 L 138.2 127.5 C 135.5 127.5 133.4 125.4 133.4 122.7 L 133.4 85.2 C 133.4 82.5 135.5 80.4 138.2 80.4 Z" stroke-linecap="round" />
</g>
		<g transform="matrix(1 0 0 1 -20.2 3.9)" clip-path="url(#CLIPPATH_5)"  >
<clipPath id="CLIPPATH_5" >
	<rect transform="matrix(1 0 0 1 20.2 -3.9)" id="clip0_995_68203" x="-180" y="-100" rx="0" ry="0" width="360" height="200" />
</clipPath>
<path style="stroke: rgb(49,100,116); stroke-width: 1; stroke-dasharray: none; stroke-linecap: round; stroke-dashoffset: 0; stroke-linejoin: round; stroke-miterlimit: 4; fill: rgb(252,245,235); fill-rule: nonzero; opacity: 1;" vector-effect="non-scaling-stroke"  transform=" translate(-159.8, -103.9)" d="M 159.8 123.3 C 170.514 123.3 179.2 114.614 179.2 103.9 C 179.2 93.1857 170.514 84.5 159.8 84.5 C 149.086 84.5 140.4 93.1857 140.4 103.9 C 140.4 114.614 149.086 123.3 159.8 123.3 Z" stroke-linecap="round" />
</g>
		<g transform="matrix(1 0 0 1 39.35 60.85)" clip-path="url(#CLIPPATH_6)"  >
<clipPath id="CLIPPATH_6" >
	<rect transform="matrix(1 0 0 1 -39.35 -60.85)" id="clip0_995_68203" x="-180" y="-100" rx="0" ry="0" width="360" height="200" />
</clipPath>
<path style="stroke: rgb(49,100,116); stroke-width: 1; stroke-dasharray: none; stroke-linecap: round; stroke-dashoffset: 0; stroke-linejoin: round; stroke-miterlimit: 4; fill: rgb(115,243,143); fill-rule: nonzero; opacity: 1;" vector-effect="non-scaling-stroke"  transform=" translate(-219.35, -160.85)" d="M 138.2 137.3 L 300.5 137.3 C 303.2 137.3 305.3 139.4 305.3 142.1 L 305.3 179.6 C 305.3 182.3 303.2 184.4 300.5 184.4 L 138.2 184.4 C 135.5 184.4 133.4 182.3 133.4 179.6 L 133.4 142.1 C 133.4 139.4 135.5 137.3 138.2 137.3 Z" stroke-linecap="round" />
</g>
		<g transform="matrix(1 0 0 1 -20.2 60.9)" clip-path="url(#CLIPPATH_7)"  >
<clipPath id="CLIPPATH_7" >
	<rect transform="matrix(1 0 0 1 20.2 -60.9)" id="clip0_995_68203" x="-180" y="-100" rx="0" ry="0" width="360" height="200" />
</clipPath>
<path style="stroke: rgb(49,100,116); stroke-width: 1; stroke-dasharray: none; stroke-linecap: round; stroke-dashoffset: 0; stroke-linejoin: round; stroke-miterlimit: 4; fill: rgb(252,245,235); fill-rule: nonzero; opacity: 1;" vector-effect="non-scaling-stroke"  transform=" translate(-159.8, -160.9)" d="M 159.8 180.3 C 170.514 180.3 179.2 171.614 179.2 160.9 C 179.2 150.186 170.514 141.5 159.8 141.5 C 149.086 141.5 140.4 150.186 140.4 160.9 C 140.4 171.614 149.086 180.3 159.8 180.3 Z" stroke-linecap="round" />
</g>
		<g transform="matrix(1 0 0 1 -27.95 -64.05)" clip-path="url(#CLIPPATH_8)"  >
<clipPath id="CLIPPATH_8" >
	<rect transform="matrix(1 0 0 1 27.95 64.05)" id="clip0_995_68203" x="-180" y="-100" rx="0" ry="0" width="360" height="200" />
</clipPath>
<path style="stroke: rgb(49,100,116); stroke-width: 1; stroke-dasharray: none; stroke-linecap: round; stroke-dashoffset: 0; stroke-linejoin: round; stroke-miterlimit: 4; fill: rgb(252,245,235); fill-rule: nonzero; opacity: 1;" vector-effect="non-scaling-stroke"  transform=" translate(-152.05, -35.95)" d="M 141.1 12.4 L 163 12.4 C 170 12.4 175.6 18 175.6 25 L 175.6 46.9 C 175.6 53.9 170 59.5 163 59.5 L 141.1 59.5 C 134.1 59.5 128.5 53.9 128.5 46.9 L 128.5 25 C 128.5 18 134.1 12.4 141.1 12.4 Z" stroke-linecap="round" />
</g>
		<g transform="matrix(1 0 0 1 48.9 -64)" clip-path="url(#CLIPPATH_9)"  >
<clipPath id="CLIPPATH_9" >
	<rect transform="matrix(1 0 0 1 -48.9 64)" id="clip0_995_68203" x="-180" y="-100" rx="0" ry="0" width="360" height="200" />
</clipPath>
<path style="stroke: none; stroke-width: 1; stroke-dasharray: none; stroke-linecap: butt; stroke-dashoffset: 0; stroke-linejoin: miter; stroke-miterlimit: 4; fill: rgb(252,245,235); fill-rule: nonzero; opacity: 1;" vector-effect="non-scaling-stroke"  transform=" translate(-228.9, -36)" d="M 267.1 28.7 L 190.7 28.7999 L 267.1 28.7 Z M 246.3 43.2 L 190.9 43.2999 L 246.3 43.2 Z" stroke-linecap="round" />
</g>
		<g transform="matrix(1 0 0 1 48.9 -64)" clip-path="url(#CLIPPATH_10)"  >
<clipPath id="CLIPPATH_10" >
	<rect transform="matrix(1 0 0 1 -48.9 64)" id="clip0_995_68203" x="-180" y="-100" rx="0" ry="0" width="360" height="200" />
</clipPath>
<path style="stroke: rgb(49,100,116); stroke-width: 1; stroke-dasharray: none; stroke-linecap: round; stroke-dashoffset: 0; stroke-linejoin: round; stroke-miterlimit: 4; fill: none; fill-rule: nonzero; opacity: 1;" vector-effect="non-scaling-stroke"  transform=" translate(-228.9, -36)" d="M 267.1 28.7 L 190.7 28.7999 M 246.3 43.2 L 190.9 43.2999" stroke-linecap="round" />
</g>
		<g transform="matrix(1 0 0 1 -27.44 -66.32)" clip-path="url(#CLIPPATH_11)"  >
<clipPath id="CLIPPATH_11" >
	<rect transform="matrix(1 0 0 1 27.44 66.32)" id="clip0_995_68203" x="-180" y="-100" rx="0" ry="0" width="360" height="200" />
</clipPath>
<path style="stroke: rgb(49,100,116); stroke-width: 1; stroke-dasharray: none; stroke-linecap: round; stroke-dashoffset: 0; stroke-linejoin: round; stroke-miterlimit: 4; fill: rgb(255,255,255); fill-rule: nonzero; opacity: 1;" vector-effect="non-scaling-stroke"  transform=" translate(-152.56, -33.68)" d="M 167.2 28.5 C 168.2 27.7 169.8 26 167.2 23.1 C 164.5 20.1 163 19.1 162.1 18.7 C 161.2 18.2 159.7 17.5 157.7 19.5 C 157.3 19.9 155 21.9 152.2 24.7 C 157.2 26.7 160.9 31.2 162.1 33.4 L 167.2 28.5 Z M 148.2 43 C 148.2 40.3 144.2 37.9 144.2 37.9 C 144.6 35.9 140.4 37.8 140.4 37.8 L 138.4 38.4 L 137.8 40 C 137.4 41 136.8 43.5 136.5 45.7 L 136.5 47.7 C 136.5 47.7 136.7 48.3 137.9 48.7 L 139.4 49.2 C 141.8 48.9 146.7 47.8 148 47.2 C 147.3 45.8 148.2 43.1 148.2 43.1 L 148.2 43 Z" stroke-linecap="round" />
</g>
		<g transform="matrix(1 0 0 1 -30.85 -62.91)" clip-path="url(#CLIPPATH_12)"  >
<clipPath id="CLIPPATH_12" >
	<rect transform="matrix(1 0 0 1 30.85 62.91)" id="clip0_995_68203" x="-180" y="-100" rx="0" ry="0" width="360" height="200" />
</clipPath>
<path style="stroke: rgb(49,100,116); stroke-width: 1; stroke-dasharray: none; stroke-linecap: round; stroke-dashoffset: 0; stroke-linejoin: round; stroke-miterlimit: 4; fill: rgb(115,243,143); fill-rule: nonzero; opacity: 1;" vector-effect="non-scaling-stroke"  transform=" translate(-149.15, -37.09)" d="M 162 33.4 C 159.7 29.5 156.3 26.5 152.2 24.7 L 150.5 26.6 L 138.4 38.4 L 138.4 38.9 C 138.4 38.9 142.5 40 142.2 41.9 C 142.2 41.9 145.4 42.4 145.4 45.2 C 145.4 45.2 147.4 45.7 148 47.2 C 151 45.1 155.2 40.5 159.5 36.2 L 162.1 33.4 L 162 33.4 Z M 139.8 49 C 138.9 45.7999 136.5 45.7 136.5 45.7 C 136.5 45.7 136 49 136.3 49.4 C 136.5 49.6 137.9 49.4 139.6 49.2 L 139.9 49.0999 L 139.8 49 Z" stroke-linecap="round" />
</g>
		<g transform="matrix(1 0 0 1 -18.85 -74.5)" clip-path="url(#CLIPPATH_13)"  >
<clipPath id="CLIPPATH_13" >
	<rect transform="matrix(1 0 0 1 18.85 74.5)" id="clip0_995_68203" x="-180" y="-100" rx="0" ry="0" width="360" height="200" />
</clipPath>
<path style="stroke: none; stroke-width: 1; stroke-dasharray: none; stroke-linecap: butt; stroke-dashoffset: 0; stroke-linejoin: miter; stroke-miterlimit: 4; fill: rgb(255,255,255); fill-rule: nonzero; opacity: 1;" vector-effect="non-scaling-stroke"  transform=" translate(-161.15, -25.5)" d="M 166 29.6 C 163.7 25.9 160.3 23 156.3 21.4 L 166 29.6 Z" stroke-linecap="round" />
</g>
		<g transform="matrix(1 0 0 1 -18.85 -74.5)" clip-path="url(#CLIPPATH_14)"  >
<clipPath id="CLIPPATH_14" >
	<rect transform="matrix(1 0 0 1 18.85 74.5)" id="clip0_995_68203" x="-180" y="-100" rx="0" ry="0" width="360" height="200" />
</clipPath>
<path style="stroke: rgb(49,100,116); stroke-width: 1; stroke-dasharray: none; stroke-linecap: round; stroke-dashoffset: 0; stroke-linejoin: round; stroke-miterlimit: 4; fill: none; fill-rule: nonzero; opacity: 1;" vector-effect="non-scaling-stroke"  transform=" translate(-161.15, -25.5)" d="M 166 29.6 C 163.7 25.9 160.3 23 156.3 21.4" stroke-linecap="round" />
</g>
		<g transform="matrix(1 0 0 1 35.7 1.3)" clip-path="url(#CLIPPATH_15)"  >
<clipPath id="CLIPPATH_15" >
	<rect transform="matrix(1 0 0 1 -35.7 -1.3)" id="clip0_995_68203" x="-180" y="-100" rx="0" ry="0" width="360" height="200" />
</clipPath>
<path style="stroke: rgb(49,100,116); stroke-width: 1; stroke-dasharray: none; stroke-linecap: round; stroke-dashoffset: 0; stroke-linejoin: round; stroke-miterlimit: 4; fill: none; fill-rule: nonzero; opacity: 1;" vector-effect="non-scaling-stroke"  transform=" translate(-215.7, -101.3)" d="M 286.7 59.5999 L 282.7 59.5999 C 277.7 59.5999 273.7 55.5999 273.7 50.5999 L 273.7 27 C 273.7 22 277.7 18 282.7 18 L 306.4 18 C 311.4 18 315.4 22 315.4 27 L 315.4 50.5999 C 315.4 54.9999 312.3 58.6 308.2 59.4 L 306.7 59.5999 C 303.8 59.5999 301.6 61.8999 301.6 64.5999 C 301.6 67.4999 303.9 69.8 306.7 69.8 C 309.7 69.8 312.2 72.2 312.2 75.2 L 312.2 185.9 C 312.2 190.9 308.2 194.9 303.2 194.9 L 135.5 194.9 C 130.5 194.9 126.5 190.9 126.5 185.9 L 126.5 64.6999 L 125 64.6999 C 120 64.6999 116 60.7 116 55.7 L 116 16.7 C 116 11.7 120 7.69995 125 7.69995 L 269.8 7.69995 M 287.4 57.5999 L 287.4 61.7" stroke-linecap="round" />
</g>
		<g transform="matrix(1 0 0 1 114.78 -55.87)" clip-path="url(#CLIPPATH_16)"  >
<clipPath id="CLIPPATH_16" >
	<rect transform="matrix(1 0 0 1 -114.78 55.87)" id="clip0_995_68203" x="-180" y="-100" rx="0" ry="0" width="360" height="200" />
</clipPath>
<path style="stroke: none; stroke-width: 1; stroke-dasharray: none; stroke-linecap: butt; stroke-dashoffset: 0; stroke-linejoin: miter; stroke-miterlimit: 4; fill: rgb(255,255,255); fill-rule: nonzero; opacity: 1;" vector-effect="non-scaling-stroke"  transform=" translate(-294.78, -44.13)" d="M 300.3 47.6 L 310.6 47.5 C 311.3 47.5 312 46.9 312.3 46.3 C 312.6 45.7 312.6 45 312.3 44.3 C 310.6 42 308 40.7 305.2 40.7 C 303.9 40.7 302.6 41.2 302.6 41.2 M 288 47.3 L 279 47.3 C 278.3 47.3 277.7 47 277.3 46.3 C 276.9 45.6 277 45 277.3 44.3 C 279.4 41.4 283 40.1 286.5 40.9" stroke-linecap="round" />
</g>
		<g transform="matrix(1 0 0 1 114.78 -55.87)" clip-path="url(#CLIPPATH_17)"  >
<clipPath id="CLIPPATH_17" >
	<rect transform="matrix(1 0 0 1 -114.78 55.87)" id="clip0_995_68203" x="-180" y="-100" rx="0" ry="0" width="360" height="200" />
</clipPath>
<path style="stroke: rgb(49,100,116); stroke-width: 1; stroke-dasharray: none; stroke-linecap: round; stroke-dashoffset: 0; stroke-linejoin: round; stroke-miterlimit: 4; fill: none; fill-rule: nonzero; opacity: 1;" vector-effect="non-scaling-stroke"  transform=" translate(-294.78, -44.13)" d="M 300.3 47.6 L 310.6 47.5 C 311.3 47.5 312 46.9 312.3 46.3 C 312.6 45.7 312.6 45 312.3 44.3 C 310.6 42 308 40.7 305.2 40.7 C 303.9 40.7 302.6 41.2 302.6 41.2 M 288 47.3 L 279 47.3 C 278.3 47.3 277.7 47 277.3 46.3 C 276.9 45.6 277 45 277.3 44.3 C 279.4 41.4 283 40.1 286.5 40.9" stroke-linecap="round" />
</g>
		<g transform="matrix(1 0 0 1 114.58 -63.15)" clip-path="url(#CLIPPATH_18)"  >
<clipPath id="CLIPPATH_18" >
	<rect transform="matrix(1 0 0 1 -114.58 63.15)" id="clip0_995_68203" x="-180" y="-100" rx="0" ry="0" width="360" height="200" />
</clipPath>
<path style="stroke: rgb(49,100,116); stroke-width: 1; stroke-dasharray: none; stroke-linecap: round; stroke-dashoffset: 0; stroke-linejoin: round; stroke-miterlimit: 4; fill: rgb(255,255,255); fill-rule: nonzero; opacity: 1;" vector-effect="non-scaling-stroke"  transform=" translate(-294.58, -36.85)" d="M 301.8 47.6 L 287.4 47.3 C 286.4 47.3 285.4 47 284.8 46.1 C 284.3 45.1 284.4 44.1 284.9 43.1 C 288.1 37.8 295.1 36.1 300.4 39.3 C 301.9 40.2 303.2 41.5 304.2 43.1 C 304.8 44.1 304.8 45.2 304.3 46.1 C 303.8 47.1 302.8 47.6 301.8 47.6 Z M 301.6 35 C 301.6 33 303.2 31.4 305.2 31.4 C 307.2 31.4 308.8 33 308.8 35 C 308.8 37 307.2 38.6 305.2 38.6 C 303.2 38.6 301.6 37 301.6 35 Z M 284.5 38.5 C 282.5 38.8 280.7 37.5 280.4 35.5 C 280.1 33.5 281.4 31.7 283.4 31.4 C 283.8 31.3 284.2 31.3 284.6 31.4 C 286.6 31.7 287.9 33.6 287.6 35.5 C 287.2 37.1 286 38.2 284.5 38.5 Z M 294.7 35.3 C 292.1 35.3 290.1 33.2 290.1 30.7 C 290.1 28.2 292.2 26.1 294.7 26.1 C 297.2 26.1 299.3 28.2 299.3 30.7 C 299.3 33.2 297.3 35.3 294.7 35.3 Z" stroke-linecap="round" />
</g>
		<g transform="matrix(1 0 0 1 -93.7 12.5)" clip-path="url(#CLIPPATH_19)"  >
<clipPath id="CLIPPATH_19" >
	<rect transform="matrix(1 0 0 1 93.7 -12.5)" id="clip0_995_68203" x="-180" y="-100" rx="0" ry="0" width="360" height="200" />
</clipPath>
<path style="stroke: none; stroke-width: 1; stroke-dasharray: none; stroke-linecap: butt; stroke-dashoffset: 0; stroke-linejoin: miter; stroke-miterlimit: 4; fill: rgb(252,245,235); fill-rule: nonzero; opacity: 1;" vector-effect="non-scaling-stroke"  transform=" translate(-86.3, -112.5)" d="M 125.2 138.4 L 64.3999 150.7 L 47.3999 123.9 L 83.6999 74.3" stroke-linecap="round" />
</g>
		<g transform="matrix(1 0 0 1 -93.7 12.5)" clip-path="url(#CLIPPATH_20)"  >
<clipPath id="CLIPPATH_20" >
	<rect transform="matrix(1 0 0 1 93.7 -12.5)" id="clip0_995_68203" x="-180" y="-100" rx="0" ry="0" width="360" height="200" />
</clipPath>
<path style="stroke: rgb(49,100,116); stroke-width: 1; stroke-dasharray: none; stroke-linecap: round; stroke-dashoffset: 0; stroke-linejoin: round; stroke-miterlimit: 4; fill: none; fill-rule: nonzero; opacity: 1;" vector-effect="non-scaling-stroke"  transform=" translate(-86.3, -112.5)" d="M 125.2 138.4 L 64.3999 150.7 L 47.3999 123.9 L 83.6999 74.3" stroke-linecap="round" />
</g>
		<g transform="matrix(1 0 0 1 -67.54 1)" clip-path="url(#CLIPPATH_21)"  >
<clipPath id="CLIPPATH_21" >
	<rect transform="matrix(1 0 0 1 67.54 -1)" id="clip0_995_68203" x="-180" y="-100" rx="0" ry="0" width="360" height="200" />
</clipPath>
<path style="stroke: rgb(49,100,116); stroke-width: 1; stroke-dasharray: none; stroke-linecap: round; stroke-dashoffset: 0; stroke-linejoin: round; stroke-miterlimit: 4; fill: rgb(252,245,235); fill-rule: nonzero; opacity: 1;" vector-effect="non-scaling-stroke"  transform=" translate(-112.46, -101)" d="M 136.8 139.1 C 145 133.9 140.8 112.5 127.4 91.5 C 114 70.5 96.3999 57.6 88.1999 62.9 C 79.8999 68.2 84.0999 89.5 97.4999 110.6 C 110.9 131.6 128.5 144.4 136.7 139.1 L 136.8 139.1 Z" stroke-linecap="round" />
</g>
		<g transform="matrix(1 0 0 1 -62.6 -1.96)" clip-path="url(#CLIPPATH_22)"  >
<clipPath id="CLIPPATH_22" >
	<rect transform="matrix(1 0 0 1 62.6 1.96)" id="clip0_995_68203" x="-180" y="-100" rx="0" ry="0" width="360" height="200" />
</clipPath>
<path style="stroke: none; stroke-width: 1; stroke-dasharray: none; stroke-linecap: butt; stroke-dashoffset: 0; stroke-linejoin: miter; stroke-miterlimit: 4; fill: rgb(252,245,235); fill-rule: nonzero; opacity: 1;" vector-effect="non-scaling-stroke"  transform=" translate(-117.4, -98.04)" d="M 113.2 112.9 C 122.6 124.9 132.4 131.8 137.1 128.9 C 142.7 125.3 138.5 108.6 127.6 91.6 C 116.7 74.6 103.4 63.6 97.8001 67.2 L 97.7001 67.2 C 93.1001 70.2 95.1001 82 102.1 95.6" stroke-linecap="round" />
</g>
		<g transform="matrix(1 0 0 1 -62.6 -1.96)" clip-path="url(#CLIPPATH_23)"  >
<clipPath id="CLIPPATH_23" >
	<rect transform="matrix(1 0 0 1 62.6 1.96)" id="clip0_995_68203" x="-180" y="-100" rx="0" ry="0" width="360" height="200" />
</clipPath>
<path style="stroke: rgb(49,100,116); stroke-width: 1; stroke-dasharray: none; stroke-linecap: round; stroke-dashoffset: 0; stroke-linejoin: round; stroke-miterlimit: 4; fill: none; fill-rule: nonzero; opacity: 1;" vector-effect="non-scaling-stroke"  transform=" translate(-117.4, -98.04)" d="M 113.2 112.9 C 122.6 124.9 132.4 131.8 137.1 128.9 C 142.7 125.3 138.5 108.6 127.6 91.6 C 116.7 74.6 103.4 63.6 97.8001 67.2 L 97.7001 67.2 C 93.1001 70.2 95.1001 82 102.1 95.6" stroke-linecap="round" />
</g>
		<g transform="matrix(1 0 0 1 -69.51 3.11)" clip-path="url(#CLIPPATH_24)"  >
<clipPath id="CLIPPATH_24" >
	<rect transform="matrix(1 0 0 1 69.51 -3.11)" id="clip0_995_68203" x="-180" y="-100" rx="0" ry="0" width="360" height="200" />
</clipPath>
<path style="stroke: rgb(49,100,116); stroke-width: 1; stroke-dasharray: none; stroke-linecap: round; stroke-dashoffset: 0; stroke-linejoin: round; stroke-miterlimit: 4; fill: rgb(252,245,235); fill-rule: nonzero; opacity: 1;" vector-effect="non-scaling-stroke"  transform=" translate(-110.49, -103.11)" d="M 117.3 98.0999 C 114.2 93.2999 107.8 91.8999 103 94.8999 C 102.7 95.0999 102.4 95.2999 102.1 95.4999 C 103.6 98.3999 105.3 101.4 107.2 104.5 C 109.1 107.6 111.1 110.3 113.1 112.9 C 113.4 112.7 113.7 112.6 114 112.4 C 118.9 109.3 120.3 102.9 117.3 98.0999 Z" stroke-linecap="round" />
</g>
		<g transform="matrix(1 0 0 1 -134.99 42.94)" clip-path="url(#CLIPPATH_25)"  >
<clipPath id="CLIPPATH_25" >
	<rect transform="matrix(1 0 0 1 134.99 -42.94)" id="clip0_995_68203" x="-180" y="-100" rx="0" ry="0" width="360" height="200" />
</clipPath>
<path style="stroke: rgb(49,100,116); stroke-width: 1; stroke-dasharray: none; stroke-linecap: round; stroke-dashoffset: 0; stroke-linejoin: round; stroke-miterlimit: 4; fill: rgb(252,245,235); fill-rule: nonzero; opacity: 1;" vector-effect="non-scaling-stroke"  transform=" translate(-45.01, -142.94)" d="M 51.3 159.3 L 65 150.6 L 47.6 123.2 L 33.9 131.9 C 25.9 136 22.7 145.8 26.8 153.8 C 30.9 161.8 40.7 165 48.7 160.9 C 49.6 160.5 50.5 159.9 51.3 159.3 Z" stroke-linecap="round" />
</g>
		<g transform="matrix(1 0 0 1 -113.34 64.2)" clip-path="url(#CLIPPATH_26)"  >
<clipPath id="CLIPPATH_26" >
	<rect transform="matrix(1 0 0 1 113.34 -64.2)" id="clip0_995_68203" x="-180" y="-100" rx="0" ry="0" width="360" height="200" />
</clipPath>
<path style="stroke: rgb(49,100,116); stroke-width: 1; stroke-dasharray: none; stroke-linecap: round; stroke-dashoffset: 0; stroke-linejoin: round; stroke-miterlimit: 4; fill: rgb(252,245,235); fill-rule: nonzero; opacity: 1;" vector-effect="non-scaling-stroke"  transform=" translate(-66.66, -164.2)" d="M 75.2001 176.8 L 75.0001 176.9 C 72.4001 178.6 69.0001 177.8 67.4001 175.2 L 55.6001 156.6 L 65.1001 150.6 L 76.9001 169.2 C 78.5001 171.8 77.7001 175.2 75.2001 176.8 Z" stroke-linecap="round" />
</g>
		<g transform="matrix(1 0 0 1 -17.62 -7.99)" clip-path="url(#CLIPPATH_27)"  >
<clipPath id="CLIPPATH_27" >
	<rect transform="matrix(1 0 0 1 17.62 7.99)" id="clip0_995_68203" x="-180" y="-100" rx="0" ry="0" width="360" height="200" />
</clipPath>
<path style="stroke: rgb(49,100,116); stroke-width: 1; stroke-dasharray: none; stroke-linecap: round; stroke-dashoffset: 0; stroke-linejoin: round; stroke-miterlimit: 4; fill: none; fill-rule: nonzero; opacity: 1;" vector-effect="non-scaling-stroke"  transform=" translate(-162.38, -92.01)" d="M 269.9 5.69995 L 269.9 9.69995 M 126.5 64.6999 L 201.2 64.6999 M 78.1999 8.99995 C 76.9999 14.9 75.1999 22.7 73.1999 24.7 C 70.7999 27.2 62.5999 27.7 55.7999 27.7 C 54.6999 27.7 54.4999 29.3 55.5999 29.6 C 61.7999 31 69.5999 32.8999 71.4999 35.2999 C 73.4999 37.6999 73.6999 46.1 73.6999 52.5 C 73.6999 53.6 75.3999 53.8 75.6999 52.7 C 77.0999 46.3 78.9999 38.0999 81.5999 36.0999 C 83.9999 34.2999 93.0999 34.0999 99.5999 34.0999 C 100.9 34.0999 101 32.5 99.8999 32.2 C 93.4999 30.9 84.5999 29 82.5999 26.7 C 80.4999 24.3 80.1999 15.8 80.1999 9.19995 C 80.1999 8.09995 78.4999 7.89995 78.1999 8.99995 Z M 110.7 158.3 C 108.3 160.6 105.5 162.4 102.4 163.7 C 100.4 163.9 96.3999 161.1 93.0999 158.5 C 92.5999 158.1 91.8999 158.8 92.2999 159.3 C 94.6999 162.3 97.5999 166.1 97.5999 168 C 97.5999 169.9 94.5999 173.9 92.0999 176.9 C 91.6999 177.4 92.3999 178.1 92.8999 177.7 C 95.9999 175.3 99.9999 172.2 101.9 172.2 C 103.8 172.2 108.1 175.7 111.2 178.2 C 111.7 178.6 112.4 177.9 112 177.3 C 109.5 174.3 106.1 170 106 168.2 C 106 166.2 109 162.2 111.5 159.1 C 111.9 158.6 111.2 157.8 110.7 158.3 Z" stroke-linecap="round" />
</g>
		<g transform="matrix(1 0 0 1 -19.7 62.2)" clip-path="url(#CLIPPATH_28)"  >
<clipPath id="CLIPPATH_28" >
	<rect transform="matrix(1 0 0 1 19.7 -62.2)" id="clip0_995_68203" x="-180" y="-100" rx="0" ry="0" width="360" height="200" />
</clipPath>
<path style="stroke: rgb(49,100,116); stroke-width: 1; stroke-dasharray: none; stroke-linecap: round; stroke-dashoffset: 0; stroke-linejoin: round; stroke-miterlimit: 4; fill: rgb(255,255,255); fill-rule: nonzero; opacity: 1;" vector-effect="non-scaling-stroke"  transform=" translate(-160.3, -162.2)" d="M 172.3 166.9 C 171.4 163 170.4 159.1 169.3 155.2 L 164.3 151.7 L 148.2 157.7 C 148.2 158.2 150.9 170.6 151.1 171.1 C 151.2 171.5 151.8 172 152.5 172.1 C 153.1 172.3 164.3 172.7 164.7 172.7 C 165.1 172.7 165.7 172.7 166.4 172.2 C 167.1 171.7 171.4 169.2 171.9 168.7 C 172.4 168.2 172.5 167.8 172.3 166.9 Z" stroke-linecap="round" />
</g>
		<g transform="matrix(1 0 0 1 -19.74 32.04)" clip-path="url(#CLIPPATH_29)"  >
<clipPath id="CLIPPATH_29" >
	<rect transform="matrix(1 0 0 1 19.74 -32.04)" id="clip0_995_68203" x="-180" y="-100" rx="0" ry="0" width="360" height="200" />
</clipPath>
<path style="stroke: none; stroke-width: 1; stroke-dasharray: none; stroke-linecap: butt; stroke-dashoffset: 0; stroke-linejoin: miter; stroke-miterlimit: 4; fill: rgb(255,255,255); fill-rule: nonzero; opacity: 1;" vector-effect="non-scaling-stroke"  transform=" translate(-160.26, -132.04)" d="M 164.2 151.8 L 163.1 158.1 L 148.2 157.7 L 151.9 152.7 L 151.6 150.7 C 151.6 150.2 151.7 149.9 152.4 149.9 L 162.7 149.1 C 163.3 149.1 163.5 149 163.7 149.9 L 164.2 151.9 L 151.9 152.6 M 163.1 158.1 L 165.5 172.6 L 163.1 158.1 Z M 161.5 113.7 C 161.5 113.7 169.1 111.7 171.5 110.9 C 173.7 110.1 173.4 108.2 173.2 107.5 C 171.9 102.8 170.6 98.1 169.2 93.5 C 169.2 93.5 168.7 90.9 165.2 91.6 C 161.6 92.4 149.5 95.6 149 96 C 148.5 96.3 146.4 96.8 147.5 100.3 C 148.7 103.7 149.9 108.1 149.9 108.1" stroke-linecap="round" />
</g>
		<g transform="matrix(1 0 0 1 -19.74 32.04)" clip-path="url(#CLIPPATH_30)"  >
<clipPath id="CLIPPATH_30" >
	<rect transform="matrix(1 0 0 1 19.74 -32.04)" id="clip0_995_68203" x="-180" y="-100" rx="0" ry="0" width="360" height="200" />
</clipPath>
<path style="stroke: rgb(49,100,116); stroke-width: 1; stroke-dasharray: none; stroke-linecap: round; stroke-dashoffset: 0; stroke-linejoin: round; stroke-miterlimit: 4; fill: none; fill-rule: nonzero; opacity: 1;" vector-effect="non-scaling-stroke"  transform=" translate(-160.26, -132.04)" d="M 164.2 151.8 L 163.1 158.1 M 163.1 158.1 L 148.2 157.7 L 151.9 152.7 L 151.6 150.7 C 151.6 150.2 151.7 149.9 152.4 149.9 L 162.7 149.1 C 163.3 149.1 163.5 149 163.7 149.9 L 164.2 151.9 L 151.9 152.6 M 163.1 158.1 L 165.5 172.6 M 161.5 113.7 C 161.5 113.7 169.1 111.7 171.5 110.9 C 173.7 110.1 173.4 108.2 173.2 107.5 C 171.9 102.8 170.6 98.1 169.2 93.5 C 169.2 93.5 168.7 90.9 165.2 91.6 C 161.6 92.4 149.5 95.6 149 96 C 148.5 96.3 146.4 96.8 147.5 100.3 C 148.7 103.7 149.9 108.1 149.9 108.1" stroke-linecap="round" />
</g>
		<g transform="matrix(1 0 0 1 -23.89 10.05)" clip-path="url(#CLIPPATH_31)"  >
<clipPath id="CLIPPATH_31" >
	<rect transform="matrix(1 0 0 1 23.89 -10.05)" id="clip0_995_68203" x="-180" y="-100" rx="0" ry="0" width="360" height="200" />
</clipPath>
<path style="stroke: rgb(49,100,116); stroke-width: 1; stroke-dasharray: none; stroke-linecap: round; stroke-dashoffset: 0; stroke-linejoin: round; stroke-miterlimit: 4; fill: rgb(115,243,143); fill-rule: nonzero; opacity: 1;" vector-effect="non-scaling-stroke"  transform=" translate(-156.11, -110.05)" d="M 155.5 116.3 C 152 116 149.4 113 149.7 109.5 C 150 106.1 153.1 103.5 156.7 103.8 C 160.2 104.1 162.9 107.2 162.5 110.6 C 162.1 114 159.1 116.6 155.5 116.3 Z" stroke-linecap="round" />
</g>
		<g transform="matrix(1 0 0 1 -19.7 3.35)" clip-path="url(#CLIPPATH_32)"  >
<clipPath id="CLIPPATH_32" >
	<rect transform="matrix(1 0 0 1 19.7 -3.35)" id="clip0_995_68203" x="-180" y="-100" rx="0" ry="0" width="360" height="200" />
</clipPath>
<path style="stroke: rgb(49,100,116); stroke-width: 1; stroke-dasharray: none; stroke-linecap: round; stroke-dashoffset: 0; stroke-linejoin: round; stroke-miterlimit: 4; fill: none; fill-rule: nonzero; opacity: 1;" vector-effect="non-scaling-stroke"  transform=" translate(-160.3, -103.35)" d="M 169.9 101.3 L 168.6 101.6 M 166.1 102.8 L 165.1 103 M 162.7 104.2 L 161.9 104.4 M 156.3 94.6 L 156.6 95.9 M 157.4 98 L 157.7 98.9 M 158.4 101.3 C 158.4 101.6 158.6 101.9 158.8 102.2 M 153.4 109.8 L 153.7 109.5 L 158.1 108 C 157.8 108.6 153.5 109.9 153.4 109.8 Z M 154.2 112.1 L 154.5 111.8 L 158.8 110.3 C 158.6 110.9 154.2 112.2 154.2 112.1 Z M 150.7 101.7 C 150.7 101.5 150.8 101.4 151 101.4 C 152.4 100.9 153.8 100.3 155.3 99.9 C 155.1 100.5 150.7 101.7 150.7 101.7 Z M 162 98 L 162.3 97.8 L 166.8 97.2 C 166.5 97.7 161.9 98.2 161.9 98.1 L 162 98 Z" stroke-linecap="round" />
</g>
		<g transform="matrix(1 0 0 1 -14.14 2.65)" clip-path="url(#CLIPPATH_33)"  >
<clipPath id="CLIPPATH_33" >
	<rect transform="matrix(1 0 0 1 14.14 -2.65)" id="clip0_995_68203" x="-180" y="-100" rx="0" ry="0" width="360" height="200" />
</clipPath>
<path style="stroke: rgb(49,100,116); stroke-width: 1; stroke-dasharray: none; stroke-linecap: round; stroke-dashoffset: 0; stroke-linejoin: round; stroke-miterlimit: 4; fill: none; fill-rule: nonzero; opacity: 1;" vector-effect="non-scaling-stroke"  transform=" translate(-165.86, -102.65)" d="M 163.7 95.3 L 164 95.6 L 165 100 C 164.4 99.7 163.6 95.3 163.7 95.3 Z M 165 110 C 164.8 109.8 165 109.5 165 109.3 L 168 104.1 C 168.3 104.9 165 110 165 110 Z" stroke-linecap="round" />
</g>
		<g transform="matrix(1 0 0 1 -13.5 6.96)" clip-path="url(#CLIPPATH_34)"  >
<clipPath id="CLIPPATH_34" >
	<rect transform="matrix(1 0 0 1 13.5 -6.96)" id="clip0_995_68203" x="-180" y="-100" rx="0" ry="0" width="360" height="200" />
</clipPath>
<path style="stroke: rgb(49,100,116); stroke-width: 1; stroke-dasharray: none; stroke-linecap: round; stroke-dashoffset: 0; stroke-linejoin: round; stroke-miterlimit: 4; fill: none; fill-rule: nonzero; opacity: 1;" vector-effect="non-scaling-stroke"  transform=" translate(-166.5, -106.96)" d="M 163.6 105.7 C 163.7 105.5 164 105.6 164.2 105.7 C 165.9 106.5 167.7 107.3 169.4 108.3 C 168.6 108.7 163.6 105.8 163.6 105.7 Z" stroke-linecap="round" />
</g>
		<g transform="matrix(1 0 0 1 48.9 3.8)" clip-path="url(#CLIPPATH_35)"  >
<clipPath id="CLIPPATH_35" >
	<rect transform="matrix(1 0 0 1 -48.9 -3.8)" id="clip0_995_68203" x="-180" y="-100" rx="0" ry="0" width="360" height="200" />
</clipPath>
<path style="stroke: none; stroke-width: 1; stroke-dasharray: none; stroke-linecap: butt; stroke-dashoffset: 0; stroke-linejoin: miter; stroke-miterlimit: 4; fill: rgb(252,245,235); fill-rule: nonzero; opacity: 1;" vector-effect="non-scaling-stroke"  transform=" translate(-228.9, -103.8)" d="M 267.1 96.5 L 190.7 96.6 L 267.1 96.5 Z M 246.3 111 L 190.9 111.1 L 246.3 111 Z" stroke-linecap="round" />
</g>
		<g transform="matrix(1 0 0 1 48.9 3.8)" clip-path="url(#CLIPPATH_36)"  >
<clipPath id="CLIPPATH_36" >
	<rect transform="matrix(1 0 0 1 -48.9 -3.8)" id="clip0_995_68203" x="-180" y="-100" rx="0" ry="0" width="360" height="200" />
</clipPath>
<path style="stroke: rgb(49,100,116); stroke-width: 1; stroke-dasharray: none; stroke-linecap: round; stroke-dashoffset: 0; stroke-linejoin: round; stroke-miterlimit: 4; fill: none; fill-rule: nonzero; opacity: 1;" vector-effect="non-scaling-stroke"  transform=" translate(-228.9, -103.8)" d="M 267.1 96.5 L 190.7 96.6 M 246.3 111 L 190.9 111.1" stroke-linecap="round" />
</g>
		<g transform="matrix(1 0 0 1 48.9 60.9)" clip-path="url(#CLIPPATH_37)"  >
<clipPath id="CLIPPATH_37" >
	<rect transform="matrix(1 0 0 1 -48.9 -60.9)" id="clip0_995_68203" x="-180" y="-100" rx="0" ry="0" width="360" height="200" />
</clipPath>
<path style="stroke: none; stroke-width: 1; stroke-dasharray: none; stroke-linecap: butt; stroke-dashoffset: 0; stroke-linejoin: miter; stroke-miterlimit: 4; fill: rgb(252,245,235); fill-rule: nonzero; opacity: 1;" vector-effect="non-scaling-stroke"  transform=" translate(-228.9, -160.9)" d="M 267.1 153.6 L 190.7 153.7 L 267.1 153.6 Z M 246.3 168.1 L 190.9 168.2 L 246.3 168.1 Z" stroke-linecap="round" />
</g>
		<g transform="matrix(1 0 0 1 48.9 60.9)" clip-path="url(#CLIPPATH_38)"  >
<clipPath id="CLIPPATH_38" >
	<rect transform="matrix(1 0 0 1 -48.9 -60.9)" id="clip0_995_68203" x="-180" y="-100" rx="0" ry="0" width="360" height="200" />
</clipPath>
<path style="stroke: rgb(49,100,116); stroke-width: 1; stroke-dasharray: none; stroke-linecap: round; stroke-dashoffset: 0; stroke-linejoin: round; stroke-miterlimit: 4; fill: none; fill-rule: nonzero; opacity: 1;" vector-effect="non-scaling-stroke"  transform=" translate(-228.9, -160.9)" d="M 267.1 153.6 L 190.7 153.7 M 246.3 168.1 L 190.9 168.2" stroke-linecap="round" />
</g>
</g>
</g>
</svg>